<?xml version="1.0" standalone="no"?>
<!DOCTYPE svg PUBLIC "-//W3C//DTD SVG 20010904//EN"
 "http://www.w3.org/TR/2001/REC-SVG-20010904/DTD/svg10.dtd">
<svg version="1.0" xmlns="http://www.w3.org/2000/svg"
 width="1280.000000pt" height="941.000000pt" viewBox="0 0 1280.000000 941.000000"
 preserveAspectRatio="xMidYMid meet">

<g transform="translate(0.000000,941.000000) scale(0.100000,-0.100000)"
fill="#000000" stroke="none">
<path d="M5430 9020 c-542 -192 -1018 -361 -1057 -376 l-73 -26 0 -750 0 -751
-122 7 c-413 24 -802 112 -1188 268 -246 100 -535 259 -720 397 -52 38 -96 68
-98 66 -8 -8 82 -198 138 -289 347 -570 999 -943 1805 -1032 153 -17 189 -23
184 -29 -3 -2 -56 -11 -119 -20 -153 -22 -522 -31 -687 -16 -248 22 -546 84
-741 152 -46 17 -86 29 -87 27 -10 -9 114 -154 203 -239 274 -261 652 -426
1105 -484 65 -8 148 -15 185 -15 167 0 187 -28 50 -72 -206 -65 -470 -98 -635
-79 -54 7 -124 19 -157 27 -32 8 -60 13 -62 11 -13 -12 68 -138 131 -205 154
-164 366 -276 664 -352 64 -17 124 -30 134 -30 16 0 17 -33 17 -555 0 -321 4
-597 11 -653 36 -332 161 -633 393 -942 83 -110 314 -351 436 -455 326 -276
766 -546 1166 -715 l112 -47 114 47 c300 125 672 338 955 547 232 172 503 432
644 619 172 228 277 433 342 664 59 211 59 215 64 876 l4 610 87 18 c192 40
426 134 567 229 117 79 249 228 284 320 12 32 7 33 -62 12 -183 -55 -515 -33
-785 53 -136 44 -117 72 48 72 36 0 122 7 190 15 475 59 877 246 1155 536 78
81 151 176 143 184 -2 3 -29 -5 -59 -16 -164 -63 -469 -129 -710 -155 -190
-20 -574 -14 -744 11 -60 9 -111 18 -114 20 -5 6 28 11 189 30 517 59 967 231
1325 504 82 62 255 231 325 316 112 137 229 336 276 467 13 39 13 40 -5 27
-192 -143 -353 -243 -542 -338 -455 -229 -938 -357 -1451 -387 l-118 -7 0 751
0 750 -27 10 c-147 53 -2094 742 -2096 742 -1 -1 -445 -158 -987 -350z m1956
-197 l954 -338 0 -681 0 -681 -147 -6 c-462 -19 -905 -182 -1247 -457 -39 -32
-116 -104 -170 -160 l-99 -102 624 -624 624 -624 52 0 c57 0 291 17 336 25
l27 5 0 -578 c0 -649 -2 -675 -70 -883 -138 -421 -459 -812 -967 -1177 -218
-156 -536 -338 -780 -446 l-103 -46 -92 41 c-150 66 -337 164 -501 262 -304
183 -522 351 -742 571 -367 369 -551 725 -585 1131 -11 139 -14 1112 -2 1118
4 2 70 -2 147 -9 77 -7 169 -13 205 -13 l65 -1 625 625 624 624 -129 128
c-225 222 -464 369 -774 477 -193 67 -478 116 -679 116 l-92 0 2 681 3 682
950 337 c523 186 959 338 969 339 11 1 448 -151 972 -336z"/>
<path d="M6247 7860 c-227 -36 -442 -134 -616 -281 l-73 -62 431 -431 431
-431 431 431 431 432 -68 56 c-172 143 -337 224 -549 272 -83 18 -336 27 -418
14z"/>
<path d="M6246 5522 l-169 -339 -356 -52 c-196 -28 -364 -51 -373 -51 -10 0
-18 -4 -18 -9 0 -5 121 -128 270 -273 l269 -263 -64 -374 c-36 -206 -64 -375
-62 -377 1 -1 151 76 332 172 182 95 337 174 345 173 8 0 163 -78 345 -174
181 -95 331 -173 332 -171 1 1 -27 170 -63 376 l-65 375 273 266 c150 147 271
269 268 271 -3 3 -173 29 -378 58 l-374 54 -165 338 c-92 186 -169 338 -172
338 -4 0 -82 -152 -175 -338z"/>
<path d="M6255 3389 c-370 -28 -716 -157 -963 -357 l-43 -35 38 -40 c62 -64
289 -242 423 -332 193 -129 329 -208 527 -307 l183 -90 172 85 c353 175 718
418 942 628 l60 56 -83 62 c-263 195 -576 304 -947 331 -152 11 -163 11 -309
-1z"/>
<path d="M793 3850 c-107 -62 -130 -142 -98 -339 20 -128 14 -163 -40 -210
-67 -58 -151 -48 -196 25 -19 32 -24 53 -24 111 -1 105 -11 112 -105 75 -41
-16 -76 -35 -78 -41 -7 -22 20 -71 38 -71 13 0 21 -10 25 -32 28 -129 157
-252 278 -265 92 -10 214 64 261 159 32 64 34 134 6 267 -22 107 -18 143 18
171 65 51 157 1 157 -85 0 -28 -6 -50 -19 -64 -20 -22 -20 -22 20 -61 l39 -39
68 65 68 65 -34 42 c-18 23 -37 54 -40 68 -11 43 -69 121 -115 153 -35 25 -55
31 -110 34 -60 3 -73 0 -119 -28z"/>
<path d="M12052 3796 c-19 -23 -42 -76 -42 -96 0 -12 -25 -44 -60 -78 -32 -32
-67 -76 -76 -97 -24 -58 -22 -143 5 -198 39 -81 144 -156 218 -157 43 0 63 -9
63 -28 0 -27 49 -80 80 -87 65 -14 151 56 209 173 19 37 25 42 55 42 38 0 76
-36 76 -72 0 -26 -34 -89 -62 -114 -23 -21 -88 -59 -91 -52 -16 32 -29 44 -51
46 -21 3 -28 -2 -37 -25 -14 -38 -5 -104 18 -121 37 -27 145 12 217 78 134
124 168 283 80 374 -42 43 -89 58 -143 44 -51 -13 -79 -44 -139 -153 -49 -88
-72 -109 -95 -86 -9 9 -3 18 21 37 45 35 82 103 89 162 6 58 -16 113 -68 170
-41 45 -134 109 -170 117 -41 9 -43 19 -19 71 12 25 21 46 19 48 -13 11 -90
12 -97 2z m41 -262 c18 -10 58 -37 90 -62 92 -70 119 -130 77 -172 -38 -38
-100 -22 -190 48 -63 49 -90 86 -97 127 -11 67 48 95 120 59z"/>
<path d="M1071 3254 c-23 -29 -27 -49 -11 -59 24 -15 3 -40 -107 -122 -148
-111 -178 -151 -178 -237 0 -53 5 -69 34 -114 42 -66 90 -108 141 -123 31 -9
37 -15 29 -25 -8 -10 5 -29 56 -80 l67 -67 19 24 c22 28 22 34 9 59 -13 25 52
96 222 242 70 61 128 111 128 112 0 1 -38 36 -84 79 l-85 77 -21 -31 c-20 -28
-21 -31 -6 -48 9 -10 16 -22 16 -28 0 -16 -179 -162 -232 -189 -65 -33 -100
-31 -132 7 -58 68 -23 123 169 266 77 58 142 109 143 114 4 9 -132 160 -149
167 -4 2 -16 -9 -28 -24z"/>
<path d="M11586 3186 c-45 -17 -109 -76 -131 -122 -8 -17 -15 -48 -15 -68 0
-37 -8 -44 -27 -25 -8 8 -17 -5 -32 -48 -12 -32 -30 -74 -41 -94 -11 -20 -20
-39 -20 -42 0 -3 16 -14 35 -26 l35 -20 14 21 c15 21 17 19 108 -64 187 -172
188 -173 188 -201 0 -24 23 -47 47 -47 4 0 18 22 31 49 12 27 43 74 67 105
l45 55 -28 15 c-18 9 -33 11 -43 5 -8 -5 -18 -9 -24 -9 -5 0 -61 49 -123 108
-94 89 -115 114 -122 147 -11 47 -5 72 23 103 25 27 67 29 105 5 97 -62 250
-225 255 -272 4 -32 23 -61 41 -61 6 0 21 19 34 43 12 24 43 66 67 94 25 28
45 54 45 57 0 3 -13 12 -28 20 -20 10 -33 11 -46 4 -15 -8 -37 9 -141 111
-156 153 -230 189 -319 157z"/>
<path d="M10993 2850 c-28 -11 -43 -40 -43 -82 1 -40 17 -64 55 -78 55 -21
115 20 115 79 -1 69 -61 108 -127 81z"/>
<path d="M11141 2714 c-12 -27 -39 -73 -59 -103 l-36 -54 30 -23 c33 -27 54
-31 54 -9 0 40 28 15 238 -216 26 -29 43 -57 44 -75 2 -28 22 -53 43 -54 6 0
20 20 33 44 13 24 46 66 75 95 l51 51 -22 22 c-18 18 -25 20 -46 10 -23 -10
-31 -4 -129 96 -58 59 -138 142 -178 185 l-74 79 -24 -48z"/>
<path d="M1527 2704 c-17 -34 -17 -36 2 -52 19 -17 14 -24 -196 -262 -170
-194 -222 -247 -250 -255 -31 -10 -52 -29 -53 -48 0 -4 24 -18 53 -31 28 -12
75 -42 104 -65 29 -22 54 -41 56 -41 3 0 10 14 17 30 10 24 10 33 0 45 -14 17
-16 14 64 107 l49 58 38 -44 c81 -92 209 -122 307 -74 55 28 158 138 192 204
32 64 34 155 2 205 -29 48 -92 105 -127 116 -21 7 -29 16 -28 30 2 16 -13 26
-82 52 -46 19 -90 40 -96 47 -19 23 -34 16 -52 -22z m220 -206 c60 -42 63
-111 7 -183 -110 -143 -189 -179 -253 -114 -29 28 -37 51 -31 89 2 15 75 105
152 188 45 49 75 54 125 20z"/>
<path d="M10769 2430 c-51 -27 -97 -83 -110 -135 -6 -25 -15 -45 -20 -45 -5 0
-9 5 -9 10 0 25 -21 5 -50 -47 -18 -32 -44 -71 -57 -87 l-24 -29 28 -23 c33
-27 51 -30 59 -9 5 13 9 13 22 3 12 -10 106 -126 215 -266 6 -7 11 -26 12 -42
1 -31 20 -60 39 -60 6 0 20 15 31 33 10 17 45 58 78 90 59 56 59 58 41 78 -13
14 -25 18 -45 14 -25 -6 -35 3 -124 114 -98 122 -115 159 -101 216 18 70 91
87 151 34 32 -28 144 -173 188 -242 10 -15 17 -42 15 -62 -1 -21 4 -41 14 -51
14 -14 23 -7 102 72 l87 87 -22 23 c-17 19 -26 21 -41 13 -11 -6 -21 -9 -23
-7 -1 2 -40 53 -85 113 -105 139 -125 161 -179 196 -55 36 -135 39 -192 9z"/>
<path d="M2054 2235 c-69 -34 -139 -107 -177 -184 -26 -54 -31 -76 -31 -136 0
-59 4 -78 27 -118 35 -59 104 -117 165 -139 55 -20 81 -22 116 -8 l26 9 -21
43 c-20 42 -22 43 -63 40 -77 -7 -140 72 -118 146 24 78 27 79 123 29 47 -25
111 -53 142 -63 55 -17 57 -17 78 2 29 26 65 101 73 152 10 69 -9 120 -67 177
-82 79 -179 97 -273 50z m194 -111 c28 -20 29 -67 2 -112 -23 -37 -30 -37
-112 4 -58 29 -65 40 -41 66 48 54 109 71 151 42z"/>
<path d="M10169 2200 c-23 -14 -42 -65 -35 -95 10 -38 45 -65 86 -65 41 0 76
27 86 65 8 31 -12 82 -37 95 -22 13 -79 12 -100 0z"/>
<path d="M10309 2042 c-18 -26 -52 -67 -74 -91 l-40 -43 35 -29 c30 -26 36
-28 46 -14 6 8 15 15 20 15 5 0 55 -69 111 -153 79 -118 103 -161 105 -191 6
-69 29 -69 95 0 32 33 74 72 93 87 l35 26 -25 20 c-15 12 -34 18 -50 15 -23
-4 -37 14 -160 192 -74 107 -140 200 -146 205 -7 6 -22 -7 -45 -39z"/>
<path d="M2512 1927 c-16 -44 -15 -57 2 -57 8 0 17 -4 20 -9 3 -5 -39 -82 -94
-172 -77 -126 -107 -166 -128 -173 -30 -10 -42 -23 -42 -47 0 -11 21 -23 68
-39 37 -12 88 -35 114 -51 l46 -28 11 31 c9 25 8 35 -5 49 -18 20 -22 11 75
169 39 63 81 123 92 133 45 37 139 5 139 -48 0 -32 7 -35 67 -23 59 12 65 20
53 73 -16 72 -94 125 -183 125 -33 0 -36 2 -34 27 2 26 -1 28 -55 35 -31 4
-73 14 -93 23 -21 8 -38 15 -39 15 -1 0 -7 -15 -14 -33z"/>
<path d="M3132 1840 c-13 -6 -29 -26 -38 -45 -25 -62 15 -125 81 -125 38 0 85
50 85 90 0 22 -9 41 -29 61 -30 30 -58 35 -99 19z"/>
<path d="M9930 1841 c-68 -21 -149 -92 -174 -153 -17 -39 -22 -114 -8 -121 4
-2 35 8 70 24 58 26 62 30 62 62 0 43 34 77 77 77 24 0 39 -9 67 -42 20 -23
36 -44 36 -48 0 -3 -28 -15 -62 -25 -72 -21 -132 -71 -159 -130 -70 -152 78
-311 253 -274 39 9 63 22 99 56 26 25 52 42 57 39 5 -3 24 11 43 30 19 20 54
47 79 62 25 14 47 27 49 29 3 2 -6 14 -19 28 -16 17 -30 23 -45 19 -20 -5 -32
10 -105 131 -46 76 -96 152 -112 170 -53 62 -136 87 -208 66z m192 -333 c21
-10 58 -79 58 -106 0 -30 -48 -72 -82 -72 -67 0 -118 49 -118 116 0 72 67 101
142 62z"/>
<path d="M2967 1673 c-2 -4 -7 -25 -11 -45 -6 -34 -5 -38 14 -38 21 0 28 -28
11 -45 -5 -6 -37 -64 -71 -130 -86 -165 -98 -183 -123 -191 -25 -8 -37 -22
-37 -45 0 -11 17 -20 58 -29 31 -7 82 -23 111 -37 30 -13 61 -21 68 -19 17 7
17 46 -2 66 -13 14 -2 40 100 242 63 124 112 228 108 232 -3 3 -19 6 -34 6
-26 0 -141 24 -172 36 -8 3 -17 2 -20 -3z"/>
<path d="M8975 1651 c-14 -13 -299 -131 -442 -182 -65 -24 -120 -44 -122 -45
-3 -3 23 -134 36 -177 3 -14 13 -17 36 -15 31 3 32 5 35 53 2 27 8 56 15 63
14 17 101 62 120 62 18 0 35 -41 122 -280 136 -376 136 -376 121 -412 -5 -10
-2 -25 6 -37 14 -20 15 -19 69 18 30 21 80 48 112 61 31 13 57 26 57 29 -1 17
-38 50 -60 53 -21 3 -28 15 -58 103 -47 143 -129 368 -163 449 -16 37 -29 72
-29 78 0 15 82 48 120 48 26 0 43 -8 70 -35 l35 -34 28 22 28 22 -53 79 c-55
82 -67 93 -83 77z"/>
<path d="M9501 1593 c-40 -8 -101 -52 -123 -90 -21 -35 -21 -35 -37 -14 -16
21 -17 20 -80 -44 -34 -36 -67 -65 -72 -65 -16 0 -9 -24 15 -55 21 -26 25 -28
41 -15 23 19 27 13 120 -185 63 -132 72 -159 65 -184 -6 -23 -4 -33 10 -46 16
-15 22 -13 85 35 36 28 82 57 101 65 38 16 40 21 18 53 -11 16 -21 21 -40 16
-22 -6 -28 2 -90 132 -82 173 -85 191 -47 234 29 33 56 40 103 26 23 -6 26 -3
43 44 21 60 15 74 -42 90 -20 5 -38 9 -41 9 -3 -1 -16 -4 -29 -6z"/>
<path d="M3361 1474 c-139 -60 -228 -250 -191 -405 10 -42 23 -64 64 -104 195
-192 477 -39 477 260 1 93 -16 138 -73 192 -70 68 -194 93 -277 57z m159 -99
c55 -28 61 -102 17 -215 -58 -153 -138 -210 -204 -144 -24 24 -25 31 -20 89 7
99 87 253 141 275 30 12 33 12 66 -5z"/>
<path d="M3864 1251 c-2 -2 -4 -22 -4 -43 0 -33 3 -38 24 -38 l24 0 -44 -127
c-75 -219 -85 -241 -116 -268 -47 -42 -35 -59 47 -67 39 -5 92 -15 119 -24 40
-13 50 -13 57 -2 14 21 10 44 -10 62 -19 17 -19 20 31 164 53 154 72 187 116
195 40 8 90 -17 98 -47 7 -31 16 -31 74 -3 37 19 44 27 42 47 -4 31 -29 67
-66 94 -22 17 -42 21 -107 21 -74 -1 -79 1 -79 20 0 20 -5 21 -101 21 -55 -1
-103 -3 -105 -5z"/>
<path d="M5020 1250 c-14 -4 -42 -8 -62 -9 l-38 -1 0 -45 c0 -43 1 -45 30 -45
17 0 30 -5 30 -11 0 -6 -18 -111 -41 -232 -22 -122 -47 -262 -56 -312 -16 -91
-36 -145 -53 -145 -6 0 -10 -13 -10 -28 l0 -28 108 -1 c59 0 116 -3 127 -4 17
-3 20 1 17 26 -2 17 -12 37 -22 45 -19 15 -19 17 5 150 14 74 27 140 29 146 3
8 18 9 48 4 65 -13 98 -30 104 -57 6 -24 31 -43 58 -43 8 0 17 13 21 33 10 47
47 147 56 153 20 12 7 34 -25 39 -27 6 -39 2 -56 -15 -20 -20 -30 -22 -97 -18
-41 3 -78 9 -83 14 -5 5 0 53 11 114 32 171 23 154 77 146 95 -12 190 -38 210
-56 10 -10 22 -37 26 -59 6 -39 8 -41 41 -41 l35 0 0 90 c0 53 4 90 10 90 6 0
10 -13 10 -30 0 -25 4 -30 25 -30 17 0 25 -5 25 -17 0 -16 -11 -125 -55 -533
-16 -147 -30 -200 -53 -200 -9 0 -11 -7 -7 -22 11 -35 19 -40 49 -28 15 5 69
10 120 10 l93 0 -5 31 c-3 21 -12 33 -28 40 -18 6 -23 14 -20 31 3 13 8 55 11
93 16 179 36 392 50 520 20 188 20 209 -2 200 -36 -13 -156 -35 -201 -36 -26
-1 -134 17 -241 40 -197 42 -227 45 -271 31z"/>
<path d="M6950 1190 c-19 -10 -62 -29 -95 -41 -33 -12 -62 -24 -63 -25 -2 -1
1 -19 8 -39 10 -31 16 -36 36 -32 30 5 29 9 49 -188 28 -263 44 -408 51 -468
6 -47 4 -61 -11 -76 -23 -26 -12 -86 13 -75 54 23 159 54 188 54 18 0 35 4 38
9 11 17 -13 58 -37 65 -23 5 -24 12 -42 156 -21 178 -15 218 38 250 57 35 101
20 135 -45 13 -26 32 -193 32 -286 0 -54 -4 -76 -19 -95 -11 -14 -17 -33 -14
-49 6 -29 9 -30 54 -11 19 8 69 20 112 26 72 12 78 15 73 34 -3 12 -6 24 -6
29 0 4 -11 12 -23 16 -23 9 -24 16 -36 163 -16 193 -38 265 -94 313 -66 56
-172 61 -247 11 -29 -19 -42 -23 -45 -14 -2 7 -11 78 -20 158 -16 150 -22 180
-33 180 -4 -1 -23 -9 -42 -20z"/>
<path d="M7651 1095 c-35 -17 -51 -29 -48 -39 3 -7 8 -34 12 -59 8 -53 -4 -81
-45 -102 -30 -16 -36 -36 -24 -82 5 -18 10 -20 37 -12 17 5 33 6 36 3 3 -2 13
-43 22 -90 49 -240 103 -314 230 -314 73 0 133 30 164 84 32 55 31 62 -6 75
-43 15 -59 14 -59 -4 0 -23 -37 -55 -63 -55 -48 0 -61 29 -103 225 -24 113
-25 120 -8 132 10 7 24 13 31 13 7 0 31 7 54 16 l41 17 -7 46 c-4 25 -9 49
-11 53 -2 3 -34 -3 -70 -14 -36 -11 -69 -17 -72 -13 -4 3 -12 36 -17 73 -12
78 -18 81 -94 47z"/>
<path d="M5915 1027 c-35 -30 -37 -88 -4 -123 52 -55 149 -16 149 61 0 75 -87
112 -145 62z"/>
<path d="M6625 854 c-22 -8 -43 -18 -48 -23 -5 -5 -23 -3 -43 5 -39 16 -114
18 -166 4 -55 -16 -130 -88 -151 -146 -32 -92 -15 -216 40 -276 14 -15 13 -19
-6 -44 -14 -18 -21 -41 -21 -69 0 -36 5 -48 31 -69 42 -36 65 -40 188 -33 98
5 108 4 119 -14 19 -29 14 -65 -11 -95 -31 -35 -107 -44 -172 -20 -52 20 -61
31 -44 52 9 12 9 20 -1 39 -15 29 -30 31 -68 11 -73 -38 -80 -90 -19 -140 l39
-31 171 -3 c194 -4 213 1 257 65 20 29 25 49 25 99 0 53 -4 67 -25 89 -55 59
-103 66 -247 39 -87 -16 -113 -11 -113 22 0 10 16 12 68 7 214 -18 297 129
237 414 l-7 32 51 7 c28 4 51 8 51 11 0 2 -9 22 -20 43 -23 45 -45 50 -115 24z
m-146 -104 c33 -17 46 -69 46 -182 0 -93 -3 -110 -21 -135 -27 -36 -74 -43
-103 -14 -58 58 -54 274 7 321 28 22 45 25 71 10z"/>
<path d="M5975 840 c-33 -11 -79 -22 -102 -26 -45 -7 -47 -11 -37 -63 6 -27
10 -30 31 -25 l25 7 -6 -89 c-3 -49 -9 -137 -12 -196 -5 -86 -10 -111 -26
-128 -28 -29 -21 -66 12 -62 14 2 71 5 128 9 66 3 102 9 102 17 0 27 -13 56
-25 56 -29 0 -32 26 -24 200 4 96 10 208 13 248 5 82 8 80 -79 52z"/>
</g>
</svg>
