<?xml version="1.0" standalone="no"?>
<!DOCTYPE svg PUBLIC "-//W3C//DTD SVG 20010904//EN"
 "http://www.w3.org/TR/2001/REC-SVG-20010904/DTD/svg10.dtd">
<svg version="1.0" xmlns="http://www.w3.org/2000/svg"
 width="131.000000pt" height="106.000000pt" viewBox="0 0 131.000000 106.000000"
 preserveAspectRatio="xMidYMid meet">

<g transform="translate(0.000000,106.000000) scale(0.100000,-0.100000)"
fill="#000000" stroke="none">
<path d="M340 960 l0 -80 -65 0 -65 0 0 -43 c0 -31 9 -57 30 -90 17 -26 30
-50 30 -52 0 -3 -13 -5 -30 -5 l-30 0 0 -170 0 -170 -65 0 -65 0 0 -150 0
-150 -35 0 c-28 0 -35 -4 -35 -20 0 -20 7 -20 645 -20 632 0 645 0 645 19 0
16 -8 20 -37 23 l-38 3 -3 148 -3 147 -64 0 -65 0 0 40 0 40 -170 0 -170 0 0
-40 0 -40 -135 0 -135 0 0 170 0 170 -30 0 c-16 0 -30 5 -30 10 0 6 14 29 30
52 22 30 30 52 30 85 l0 43 -60 0 -60 0 0 80 c0 47 -4 80 -10 80 -6 0 -10 -33
-10 -80z m110 -135 c0 -12 -18 -15 -105 -15 -87 0 -105 3 -105 15 0 12 18 15
105 15 87 0 105 -3 105 -15z m0 -185 c0 -19 -7 -20 -105 -20 -98 0 -105 1
-105 20 0 19 7 20 105 20 98 0 105 -1 105 -20z m0 -85 c0 -12 -18 -15 -105
-15 -87 0 -105 3 -105 15 0 12 18 15 105 15 87 0 105 -3 105 -15z m0 -130 l0
-65 -105 0 -105 0 0 65 0 65 105 0 105 0 0 -65z m610 -45 c0 -19 -7 -20 -140
-20 -133 0 -140 1 -140 20 0 19 7 20 140 20 133 0 140 -1 140 -20z m140 -190
l0 -130 -85 0 -85 0 0 70 0 70 -50 0 -50 0 0 -70 0 -70 -415 0 -415 0 0 130 0
130 550 0 550 0 0 -130z"/>
<path d="M140 260 c0 -19 7 -20 115 -20 108 0 115 1 115 20 0 19 -7 20 -115
20 -108 0 -115 -1 -115 -20z"/>
<path d="M410 260 c0 -19 7 -20 115 -20 108 0 115 1 115 20 0 19 -7 20 -115
20 -108 0 -115 -1 -115 -20z"/>
<path d="M670 260 c0 -19 7 -20 115 -20 108 0 115 1 115 20 0 19 -7 20 -115
20 -108 0 -115 -1 -115 -20z"/>
<path d="M930 260 c0 -19 7 -20 115 -20 108 0 115 1 115 20 0 19 -7 20 -115
20 -108 0 -115 -1 -115 -20z"/>
<path d="M140 145 l0 -55 115 0 115 0 0 55 0 55 -115 0 -115 0 0 -55z"/>
<path d="M410 145 l0 -55 115 0 115 0 0 55 0 55 -115 0 -115 0 0 -55z"/>
<path d="M670 145 l0 -55 115 0 115 0 0 55 0 55 -115 0 -115 0 0 -55z"/>
<path d="M1060 145 l0 -55 50 0 50 0 0 55 0 55 -50 0 -50 0 0 -55z"/>
<path d="M830 853 l43 -46 -23 -19 c-16 -13 -35 -18 -57 -16 -18 2 -33 4 -33
3 0 0 11 -21 23 -46 l24 -46 15 28 c9 15 30 35 46 43 36 18 36 18 48 -74 l7
-55 13 45 c7 25 18 64 24 88 10 38 17 46 56 62 51 22 63 56 17 47 -16 -2 -42
-11 -59 -18 -29 -11 -38 -10 -103 19 -39 18 -74 32 -77 32 -4 0 13 -21 36 -47z"/>
</g>
</svg>
