<?xml version="1.0" standalone="no"?>
<!DOCTYPE svg PUBLIC "-//W3C//DTD SVG 20010904//EN"
 "http://www.w3.org/TR/2001/REC-SVG-20010904/DTD/svg10.dtd">
<svg version="1.0" xmlns="http://www.w3.org/2000/svg"
 width="820.000000pt" height="579.000000pt" viewBox="0 0 820.000000 579.000000"
 preserveAspectRatio="xMidYMid meet">

<g transform="translate(0.000000,579.000000) scale(0.100000,-0.100000)"
fill="#000000" stroke="none">
<path d="M6525 4495 c-71 -8 -139 -14 -151 -14 -16 -1 -47 -46 -139 -198 -145
-243 -323 -521 -390 -611 -56 -75 -92 -98 -235 -151 l-92 -35 -65 18 c-90 24
-308 38 -397 26 -75 -11 -151 -33 -200 -57 l-29 -15 109 -44 c60 -24 123 -50
139 -58 l30 -14 -30 -12 c-113 -44 -399 -106 -580 -125 -56 -6 -69 -3 -200 48
-142 55 -216 76 -353 102 -43 8 -187 51 -322 94 -135 44 -569 184 -965 311
-396 127 -864 278 -1040 335 -176 57 -385 125 -465 150 l-145 47 -205 -6
c-225 -6 -416 -21 -498 -37 -67 -13 -107 -46 -99 -80 7 -27 -4 -22 492 -221
339 -136 667 -260 893 -338 l153 -53 115 -161 c109 -153 114 -161 92 -167 -22
-7 -22 -7 4 -8 20 -1 37 -14 67 -53 25 -33 36 -55 29 -59 -6 -4 -3 -9 9 -13
17 -6 121 -136 108 -136 -3 0 -24 9 -46 21 -23 11 -43 19 -45 16 -2 -2 18 -14
46 -27 27 -13 60 -35 73 -49 28 -30 107 -141 107 -150 0 -3 -21 -15 -47 -25
-43 -18 -48 -18 -72 -3 -47 30 -146 77 -161 77 -8 0 12 -12 45 -25 62 -26 106
-54 112 -72 2 -6 -10 -16 -28 -23 -25 -11 -37 -11 -63 -1 -48 20 -76 24 -33 5
20 -9 37 -19 37 -23 0 -9 -106 -61 -123 -61 -12 0 -108 -57 -134 -80 -22 -18
-16 -203 7 -274 11 -33 18 -61 15 -64 -3 -3 -18 24 -35 59 -17 35 -28 53 -24
39 20 -76 130 -222 223 -297 49 -39 57 -49 43 -55 -12 -5 -10 -7 11 -7 22 -1
138 -51 157 -68 2 -2 -2 -8 -10 -13 -10 -6 -3 -8 20 -4 23 4 50 -1 79 -13 l44
-19 -48 -32 c-27 -18 -44 -32 -38 -32 5 0 29 14 52 31 41 29 44 30 84 16 l42
-14 -75 -18 c-95 -23 -186 -63 -231 -103 l-36 -32 -54 14 c-30 8 -56 13 -57
11 -2 -2 16 -9 40 -15 23 -7 48 -14 55 -16 8 -2 6 -15 -7 -43 -16 -32 -24 -38
-42 -35 -21 4 -21 4 -3 -4 13 -6 22 -22 25 -47 3 -25 13 -44 30 -56 55 -41
224 -48 322 -13 52 18 211 109 229 131 9 10 14 44 15 92 1 42 2 83 3 92 1 13
19 17 99 22 256 16 425 54 835 189 169 55 309 99 311 97 2 -2 64 -91 139 -197
l136 -193 -16 -42 c-18 -50 -20 -126 -4 -155 6 -12 28 -34 48 -49 29 -22 48
-28 104 -31 150 -9 323 90 403 229 29 52 70 199 58 211 -14 14 -165 30 -226
23 -67 -8 -145 -34 -209 -71 -23 -13 -45 -24 -49 -24 -7 0 -198 348 -198 359
0 3 64 35 143 70 78 36 313 143 521 238 208 95 388 173 400 173 21 0 141 -26
1386 -305 l685 -153 109 14 c261 32 490 101 609 183 56 38 61 65 15 80 -121
40 -798 188 -1738 381 -217 45 -403 85 -414 89 -14 5 32 27 168 80 l187 73
407 -76 c224 -42 417 -76 430 -76 26 0 390 88 411 100 9 5 -38 24 -130 53
-198 63 -715 222 -789 243 l-60 17 0 74 c0 63 12 117 76 341 41 147 107 377
145 512 38 135 72 253 75 263 6 21 -16 21 -211 2z m161 -51 c-4 -15 -68 -240
-142 -500 -121 -428 -134 -481 -134 -552 0 -73 -2 -80 -21 -85 -31 -8 -16 -23
36 -36 77 -19 823 -248 875 -268 8 -3 -52 -23 -135 -44 l-150 -38 -300 55
c-165 30 -419 78 -565 105 -146 27 -273 49 -282 49 -10 0 -18 -6 -18 -14 0
-14 26 -22 163 -47 37 -7 67 -15 67 -18 0 -3 -81 -38 -181 -77 l-181 -70 -121
23 c-67 13 -129 26 -137 29 -9 3 39 25 110 50 69 24 131 46 139 49 10 4 11 9
4 16 -8 8 -58 -5 -175 -44 l-163 -55 -424 85 c-367 73 -470 89 -449 68 3 -3
151 -34 329 -70 296 -59 598 -121 1024 -210 88 -19 279 -59 425 -89 146 -30
319 -67 385 -81 66 -15 187 -40 268 -55 200 -40 897 -196 972 -218 l60 -18
-48 -29 c-125 -73 -336 -135 -546 -162 l-136 -16 -140 31 c-77 17 -302 68
-500 112 -969 217 -1433 320 -1449 320 -9 0 -367 79 -794 175 -458 103 -786
172 -800 169 -29 -8 -62 20 -62 53 0 14 16 39 41 63 28 27 37 41 28 44 -70 25
-649 196 -660 196 -17 0 -64 -65 -72 -100 -4 -14 -47 -101 -97 -193 -49 -93
-90 -172 -90 -175 0 -4 51 -20 113 -36 162 -42 267 -80 397 -146 l115 -59 128
-8 c110 -7 128 -6 131 7 3 8 17 85 31 170 15 85 29 158 33 161 9 8 72 -9 72
-19 0 -4 -11 -70 -24 -147 -13 -77 -22 -142 -20 -144 4 -4 264 33 439 63 l70
11 3 58 c3 56 4 58 29 55 20 -2 29 -13 43 -48 9 -24 22 -46 27 -47 6 -2 42 8
80 22 l70 25 204 -46 c112 -25 206 -48 209 -51 3 -3 -5 -3 -18 0 -15 3 -44 -5
-80 -23 -31 -15 -102 -47 -157 -70 -55 -23 -113 -47 -130 -55 -55 -25 -339
-137 -434 -171 -98 -36 -235 -70 -514 -129 -310 -65 -387 -90 -387 -127 0 -10
3 -18 6 -18 27 0 817 205 881 229 85 31 500 199 733 296 88 36 145 55 165 52
24 -2 -72 -54 -490 -261 -286 -142 -611 -303 -722 -357 -112 -54 -203 -103
-203 -108 0 -19 -258 -88 -430 -115 -110 -18 -301 -37 -310 -31 -4 2 1 35 11
72 10 37 18 82 18 98 0 17 -9 -10 -19 -58 -11 -48 -22 -92 -25 -97 -6 -9 -85
-15 -85 -7 0 2 9 30 20 62 11 32 20 68 19 79 0 12 -2 17 -4 11 -2 -5 -13 -43
-26 -82 l-23 -73 -37 0 c-21 0 -40 4 -43 9 -3 5 5 33 19 63 14 30 27 70 31 89
3 19 -5 5 -18 -32 -13 -36 -31 -77 -41 -92 -16 -25 -19 -25 -53 -14 -19 7 -36
15 -37 17 0 3 16 39 36 80 20 41 39 91 42 110 4 24 0 18 -13 -21 -24 -72 -72
-159 -87 -159 -12 0 -77 20 -84 26 -2 2 10 20 26 41 17 21 35 49 42 63 10 21
9 22 -1 6 -7 -11 -29 -38 -50 -60 l-36 -40 -49 20 c-27 12 -47 26 -45 34 2 8
-3 10 -14 6 -25 -10 -144 67 -144 92 0 6 -9 13 -19 17 -41 13 -137 153 -118
172 4 3 21 -8 39 -26 17 -18 41 -37 52 -43 12 -6 3 6 -19 25 -44 40 -41 43 25
23 48 -14 80 -8 112 21 19 17 68 11 68 -8 0 -6 -15 -26 -34 -45 -19 -19 -30
-34 -25 -34 13 0 57 48 64 70 4 14 21 18 83 23 54 4 79 2 84 -6 4 -7 5 13 2
43 -12 127 -72 261 -156 346 l-40 42 38 12 c37 13 38 12 71 -26 18 -21 48 -66
68 -99 19 -33 35 -55 35 -49 0 15 -92 156 -114 173 -16 14 -16 15 6 27 13 8
30 13 39 14 25 0 117 -149 155 -250 7 -19 13 -28 13 -20 1 23 -65 156 -110
222 -37 54 -38 58 -20 68 11 5 27 10 36 10 19 0 85 -101 121 -188 15 -34 29
-60 31 -58 7 7 -52 129 -92 191 -35 55 -36 60 -19 72 29 21 43 15 72 -31 44
-71 53 -83 36 -46 -9 19 -25 47 -35 62 -25 34 -24 37 8 49 25 9 31 7 52 -18
l24 -28 -17 27 c-21 36 -21 35 17 47 30 10 44 31 141 208 59 109 104 199 99
200 -4 2 -276 93 -603 202 -631 211 -840 285 -1170 413 -303 118 -774 309
-784 319 -19 17 17 38 82 48 84 14 277 28 492 37 l165 6 150 -47 c83 -26 382
-123 665 -215 283 -93 637 -207 785 -255 450 -144 794 -254 910 -291 61 -20
119 -39 130 -44 55 -24 250 -81 325 -95 134 -26 222 -53 349 -105 l119 -49
113 15 c291 37 539 105 989 273 254 95 284 112 350 201 77 103 212 313 370
575 73 121 133 221 134 222 2 3 212 20 265 22 53 1 53 1 47 -25z m-4794 -943
c28 -12 65 -53 157 -175 67 -88 119 -161 118 -163 -2 -1 -35 10 -73 26 -74 31
-65 21 -265 299 l-31 43 29 -7 c15 -3 45 -14 65 -23z m3376 -1 c73 -6 147 -16
165 -23 31 -13 30 -14 -121 -66 l-153 -54 -124 49 c-68 27 -121 52 -119 56 8
13 129 41 204 47 8 0 75 -4 148 -9z m-2892 -156 c212 -70 383 -130 382 -134
-2 -3 -43 -81 -93 -173 l-90 -167 -50 -17 c-27 -10 -53 -18 -56 -18 -6 0 -49
53 -144 179 -71 93 48 -14 143 -129 18 -22 28 -29 22 -16 -13 25 -171 189
-205 212 -23 15 -310 389 -299 389 3 0 179 -57 390 -126z m-252 -179 c65 -31
80 -44 132 -112 108 -142 119 -157 106 -149 -23 14 -12 -6 25 -47 l37 -41 -31
-13 c-30 -12 -32 -11 -84 40 -56 55 -163 196 -155 204 7 7 117 -70 150 -106
17 -17 34 -31 40 -31 21 0 -53 65 -144 125 -85 57 -106 78 -153 152 -12 19 -4
17 77 -22z m215 -379 c-3 -3 -11 5 -18 17 -13 21 -12 21 5 5 10 -10 16 -20 13
-22z m-116 -214 c45 -62 71 -115 92 -185 23 -81 18 -95 -23 -60 -21 17 -41 48
-52 80 -25 72 -76 139 -134 178 l-48 33 38 20 c38 20 39 20 66 1 14 -11 42
-41 61 -67z m2747 69 c-1 -9 -1323 -629 -1357 -636 -15 -3 268 143 631 323
551 274 664 327 692 324 19 -2 34 -7 34 -11z m115 -10 c25 -10 71 13 -465
-231 -587 -268 -570 -260 -570 -263 0 -2 50 -95 110 -207 61 -112 110 -208
110 -212 0 -15 17 -8 84 31 103 60 159 74 281 69 57 -2 107 -6 110 -10 10 -10
-23 -116 -53 -171 -54 -100 -192 -191 -320 -212 -61 -10 -126 10 -158 48 -22
26 -25 39 -22 77 3 25 12 62 22 82 l18 36 -152 214 c-130 183 -155 213 -176
211 -13 -1 -24 0 -24 1 0 2 104 52 232 112 127 60 385 182 572 271 188 89 350
162 361 162 11 0 29 -4 40 -8z m-3007 -40 c50 -26 118 -101 142 -157 11 -25
20 -50 20 -55 0 -18 -77 30 -99 63 -32 46 -66 69 -112 75 -28 4 -45 1 -58 -11
-22 -20 -108 -16 -103 6 2 7 7 14 10 16 4 2 39 20 77 42 39 21 74 39 78 39 4
1 25 -8 45 -18z m30 -125 c51 -50 33 -56 -21 -7 -42 39 -46 40 -76 30 -34 -12
-48 -8 -36 11 5 8 24 10 53 7 34 -4 53 -13 80 -41z m-28 -53 c33 -52 37 -90
15 -132 -24 -48 -48 -51 -152 -20 -61 18 -73 26 -84 51 -19 46 0 71 82 112 39
20 80 36 91 36 11 0 30 -18 48 -47z m469 -659 c8 -8 -54 -87 -94 -120 -74 -60
-148 -88 -252 -92 -104 -5 -108 -2 -73 56 17 27 26 32 62 33 42 2 43 2 9 8
-28 5 -32 8 -20 17 32 26 122 65 181 79 l62 14 -25 -24 c-13 -13 -46 -36 -74
-50 -27 -15 -42 -24 -32 -21 10 3 23 6 27 6 5 0 38 22 74 49 36 27 73 52 83
54 18 5 64 -1 72 -9z m111 0 c0 -8 -4 -12 -10 -9 -5 3 -10 10 -10 16 0 5 5 9
10 9 6 0 10 -7 10 -16z m-44 -29 c16 -25 15 -27 -19 -79 -20 -30 -56 -71 -81
-92 -26 -21 -46 -44 -46 -50 0 -44 -261 -73 -330 -37 -21 11 -36 27 -38 39 -3
21 2 22 95 26 84 3 108 8 165 35 72 34 145 95 179 149 25 41 52 44 75 9z m14
-100 c0 -37 0 -37 -115 -105 -39 -23 -38 -22 16 31 30 30 63 66 73 82 10 15
20 27 22 27 2 0 4 -16 4 -35z"/>
<path d="M2595 2679 c20 -39 51 -116 70 -172 19 -56 35 -94 35 -85 0 41 -118
328 -135 328 -3 0 11 -32 30 -71z"/>
<path d="M2541 2630 c-1 -3 12 -37 29 -75 16 -39 29 -63 29 -55 0 15 -56 140
-58 130z"/>
<path d="M2360 2485 c0 -5 5 -17 10 -25 5 -8 10 -10 10 -5 0 6 -5 17 -10 25
-5 8 -10 11 -10 5z"/>
<path d="M2522 2480 c0 -8 6 -31 13 -50 7 -19 13 -28 13 -20 0 8 -6 31 -13 50
-7 19 -13 28 -13 20z"/>
<path d="M2611 2440 c0 -8 4 -24 9 -35 5 -13 9 -14 9 -5 0 8 -4 24 -9 35 -5
13 -9 14 -9 5z"/>
<path d="M2461 2425 c0 -5 6 -32 14 -60 8 -29 14 -39 14 -25 -1 24 -27 106
-28 85z"/>
<path d="M2392 2400 c0 -8 4 -26 8 -40 6 -20 8 -21 8 -5 0 11 -3 29 -8 40 -5
12 -8 14 -8 5z"/>
<path d="M2701 2384 c0 -11 3 -14 6 -6 3 7 2 16 -1 19 -3 4 -6 -2 -5 -13z"/>
<path d="M2551 2374 c0 -11 3 -14 6 -6 3 7 2 16 -1 19 -3 4 -6 -2 -5 -13z"/>
<path d="M2632 2355 c-1 -11 3 -38 7 -60 l9 -40 0 35 c0 19 -4 46 -8 60 -6 20
-8 21 -8 5z"/>
<path d="M2717 2305 c3 -33 7 -62 9 -64 7 -8 2 63 -7 94 -5 20 -6 9 -2 -30z"/>
<path d="M2567 2215 c3 -71 6 -134 8 -140 7 -21 3 192 -4 230 -5 24 -6 -13 -4
-90z"/>
<path d="M2412 2300 c0 -19 2 -27 5 -17 2 9 2 25 0 35 -3 9 -5 1 -5 -18z"/>
<path d="M2494 2190 c0 -58 1 -81 3 -52 2 28 2 76 0 105 -2 28 -3 5 -3 -53z"/>
<path d="M2654 2150 c0 -58 1 -81 3 -52 2 28 2 76 0 105 -2 28 -3 5 -3 -53z"/>
<path d="M2252 2210 c0 -14 2 -19 5 -12 2 6 2 18 0 25 -3 6 -5 1 -5 -13z"/>
<path d="M2734 2125 c0 -60 1 -84 3 -52 2 32 2 81 0 110 -2 29 -3 3 -3 -58z"/>
<path d="M2331 2179 c-3 -56 -36 -125 -81 -170 -27 -27 -41 -45 -31 -39 56 29
134 172 118 213 -4 8 -6 6 -6 -4z"/>
<path d="M2227 2139 c-11 -22 -35 -51 -55 -64 -20 -14 -33 -25 -28 -25 29 0
113 95 104 119 -2 5 -11 -9 -21 -30z"/>
<path d="M2411 2149 c0 -14 -8 -48 -16 -74 -8 -27 -12 -51 -10 -53 8 -8 36
108 32 130 -4 21 -4 21 -6 -3z"/>
<path d="M2053 2143 c9 -2 23 -2 30 0 6 3 -1 5 -18 5 -16 0 -22 -2 -12 -5z"/>
<path d="M2562 2035 c0 -16 2 -22 5 -12 2 9 2 23 0 30 -3 6 -5 -1 -5 -18z"/>
<path d="M2063 2043 c15 -2 37 -2 50 0 12 2 0 4 -28 4 -27 0 -38 -2 -22 -4z"/>
<path d="M2642 2005 c0 -16 2 -22 5 -12 2 9 2 23 0 30 -3 6 -5 -1 -5 -18z"/>
<path d="M2248 1643 c7 -3 16 -2 19 1 4 3 -2 6 -13 5 -11 0 -14 -3 -6 -6z"/>
<path d="M1858 3233 c12 -2 30 -2 40 0 9 3 -1 5 -23 4 -22 0 -30 -2 -17 -4z"/>
<path d="M1788 3223 c6 -2 18 -2 25 0 6 3 1 5 -13 5 -14 0 -19 -2 -12 -5z"/>
<path d="M1748 3213 c7 -3 16 -2 19 1 4 3 -2 6 -13 5 -11 0 -14 -3 -6 -6z"/>
<path d="M1670 3188 c-66 -32 -171 -142 -209 -217 -18 -34 -31 -65 -29 -66 2
-2 19 26 38 63 43 84 137 180 210 215 30 14 51 26 45 27 -5 0 -30 -10 -55 -22z"/>
<path d="M1795 3120 c-14 -7 -8 -8 20 -3 22 3 42 7 44 9 9 8 -45 2 -64 -6z"/>
<path d="M1928 3123 c12 -2 30 -2 40 0 9 3 -1 5 -23 4 -22 0 -30 -2 -17 -4z"/>
<path d="M1998 3113 c7 -3 16 -2 19 1 4 3 -2 6 -13 5 -11 0 -14 -3 -6 -6z"/>
<path d="M1704 3084 c-18 -14 -18 -14 6 -3 31 14 36 19 24 19 -6 0 -19 -7 -30
-16z"/>
<path d="M1634 3035 c-23 -19 -49 -47 -58 -62 -15 -25 -14 -24 11 4 15 18 44
46 63 63 19 16 33 29 30 29 -3 1 -24 -15 -46 -34z"/>
<path d="M1786 3005 c-66 -27 -146 -98 -177 -157 -27 -52 -17 -48 15 6 36 61
107 121 175 147 47 17 71 20 146 17 50 -3 79 -2 65 3 -57 16 -163 9 -224 -16z"/>
<path d="M1540 2920 c-6 -11 -8 -20 -6 -20 3 0 10 9 16 20 6 11 8 20 6 20 -3
0 -10 -9 -16 -20z"/>
<path d="M1908 2923 c18 -2 45 -2 60 0 15 2 0 4 -33 4 -33 0 -45 -2 -27 -4z"/>
<path d="M1830 2910 c-18 -12 -2 -12 25 0 13 6 15 9 5 9 -8 0 -22 -4 -30 -9z"/>
<path d="M2001 2916 c2 -2 18 -6 34 -10 22 -5 26 -4 15 4 -14 9 -59 15 -49 6z"/>
<path d="M1785 2888 c-51 -28 -125 -122 -139 -178 -4 -14 5 -1 20 28 27 54 78
114 124 144 28 19 25 23 -5 6z"/>
<path d="M2123 2868 c32 -17 79 -49 105 -71 l47 -39 -49 47 c-27 25 -71 57
-97 71 -70 35 -74 29 -6 -8z"/>
<path d="M1512 2865 c-17 -37 -14 -45 4 -12 9 16 14 31 11 33 -2 2 -9 -7 -15
-21z"/>
<path d="M1406 2834 c-4 -14 -5 -28 -3 -31 3 -2 8 8 11 23 4 14 5 28 3 31 -3
2 -8 -8 -11 -23z"/>
<path d="M1933 2823 c9 -2 25 -2 35 0 9 3 1 5 -18 5 -19 0 -27 -2 -17 -5z"/>
<path d="M1482 2781 c-7 -21 -12 -45 -11 -52 0 -8 7 8 15 35 9 26 13 50 11 52
-2 2 -9 -13 -15 -35z"/>
<path d="M1824 2788 c-34 -27 -44 -36 -63 -63 -8 -11 5 -1 30 21 24 23 53 46
64 52 11 6 15 12 9 12 -6 0 -24 -10 -40 -22z"/>
<path d="M1566 2754 c-9 -26 -16 -52 -15 -58 0 -6 9 13 20 43 10 30 17 56 15
58 -2 2 -11 -17 -20 -43z"/>
<path d="M1392 2770 c0 -14 2 -19 5 -12 2 6 2 18 0 25 -3 6 -5 1 -5 -13z"/>
<path d="M1382 2700 c0 -19 2 -27 5 -17 2 9 2 25 0 35 -3 9 -5 1 -5 -18z"/>
<path d="M1895 2708 c-47 -26 -116 -110 -102 -124 2 -3 10 8 16 25 17 40 61
80 107 96 22 8 30 14 19 14 -11 0 -29 -5 -40 -11z"/>
<path d="M1463 2675 c0 -22 2 -30 4 -17 2 12 2 30 0 40 -3 9 -5 -1 -4 -23z"/>
<path d="M1730 2679 c-7 -11 -10 -23 -7 -25 2 -2 9 7 15 21 14 30 7 33 -8 4z"/>
<path d="M1542 2660 c0 -14 2 -19 5 -12 2 6 2 18 0 25 -3 6 -5 1 -5 -13z"/>
<path d="M1631 2664 c0 -11 3 -14 6 -6 3 7 2 16 -1 19 -3 4 -6 -2 -5 -13z"/>
<path d="M1373 2580 c0 -36 2 -50 4 -32 2 17 2 47 0 65 -2 17 -4 3 -4 -33z"/>
<path d="M1621 2624 c0 -11 3 -14 6 -6 3 7 2 16 -1 19 -3 4 -6 -2 -5 -13z"/>
<path d="M1453 2560 c0 -36 2 -50 4 -32 2 17 2 47 0 65 -2 17 -4 3 -4 -33z"/>
<path d="M1533 2545 c0 -38 2 -53 4 -32 2 20 2 52 0 70 -2 17 -4 1 -4 -38z"/>
<path d="M1701 2584 c0 -11 3 -14 6 -6 3 7 2 16 -1 19 -3 4 -6 -2 -5 -13z"/>
<path d="M1614 2500 c0 -52 1 -74 3 -47 2 26 2 68 0 95 -2 26 -3 4 -3 -48z"/>
<path d="M1781 2554 c0 -11 3 -14 6 -6 3 7 2 16 -1 19 -3 4 -6 -2 -5 -13z"/>
<path d="M1692 2480 c0 -47 3 -96 7 -110 4 -14 6 20 4 75 -6 127 -11 146 -11
35z"/>
<path d="M1773 2455 c0 -44 2 -61 4 -37 2 23 2 59 0 80 -2 20 -4 1 -4 -43z"/>
<path d="M1383 2455 c0 -22 2 -30 4 -17 2 12 2 30 0 40 -3 9 -5 -1 -4 -23z"/>
<path d="M1462 2430 c0 -19 2 -27 5 -17 2 9 2 25 0 35 -3 9 -5 1 -5 -18z"/>
<path d="M1541 2405 c0 -11 6 -42 13 -70 18 -65 19 -37 1 35 -7 30 -14 46 -14
35z"/>
<path d="M1392 2390 c0 -14 2 -19 5 -12 2 6 2 18 0 25 -3 6 -5 1 -5 -13z"/>
<path d="M1622 2380 c0 -14 2 -19 5 -12 2 6 2 18 0 25 -3 6 -5 1 -5 -13z"/>
<path d="M1472 2360 c0 -14 2 -19 5 -12 2 6 2 18 0 25 -3 6 -5 1 -5 -13z"/>
<path d="M1781 2344 c0 -11 3 -14 6 -6 3 7 2 16 -1 19 -3 4 -6 -2 -5 -13z"/>
<path d="M1402 2335 c0 -11 3 -29 8 -40 11 -25 11 1 0 35 -6 20 -8 21 -8 5z"/>
<path d="M1631 2334 c0 -11 3 -14 6 -6 3 7 2 16 -1 19 -3 4 -6 -2 -5 -13z"/>
<path d="M1481 2320 c0 -8 4 -24 9 -35 5 -13 9 -14 9 -5 0 8 -4 24 -9 35 -5
13 -9 14 -9 5z"/>
<path d="M1710 2323 c0 -16 31 -95 36 -90 2 2 -5 25 -16 53 -10 27 -19 43 -20
37z"/>
<path d="M1641 2300 c0 -8 6 -28 14 -45 17 -39 18 -21 0 25 -7 19 -14 28 -14
20z"/>
<path d="M1571 2270 c0 -8 9 -33 20 -55 10 -22 16 -29 13 -16 -10 37 -33 88
-33 71z"/>
<path d="M1421 2254 c0 -11 3 -14 6 -6 3 7 2 16 -1 19 -3 4 -6 -2 -5 -13z"/>
<path d="M1505 2235 c10 -48 80 -190 131 -266 53 -80 149 -181 215 -226 50
-34 129 -76 134 -71 2 2 -26 19 -63 38 -48 25 -95 62 -167 135 -107 107 -159
187 -223 339 -18 45 -31 68 -27 51z"/>
<path d="M1670 2216 c0 -4 17 -40 37 -80 47 -88 166 -212 240 -250 29 -14 56
-26 60 -26 4 1 -14 13 -42 27 -103 53 -191 146 -261 277 -19 33 -34 57 -34 52z"/>
<path d="M1750 2216 c0 -20 60 -105 110 -156 47 -49 142 -111 167 -110 4 1
-14 13 -42 27 -79 40 -131 88 -185 170 -27 43 -50 74 -50 69z"/>
<path d="M1446 2180 c3 -14 11 -32 16 -40 6 -10 7 -7 2 10 -3 14 -11 32 -16
40 -6 10 -7 7 -2 -10z"/>
<path d="M1610 2165 c0 -18 79 -147 123 -200 86 -105 229 -203 322 -220 17 -3
2 5 -31 18 -161 62 -280 172 -378 348 -20 35 -36 59 -36 54z"/>
<path d="M1470 2117 c-1 -32 121 -226 194 -311 46 -54 188 -176 204 -176 7 0
8 0 -85 74 -109 87 -184 182 -269 339 -24 45 -44 78 -44 74z"/>
<path d="M2178 1843 c7 -3 16 -2 19 1 4 3 -2 6 -13 5 -11 0 -14 -3 -6 -6z"/>
<path d="M2225 1750 c-13 -6 -15 -9 -5 -9 8 0 22 4 30 9 18 12 2 12 -25 0z"/>
<path d="M2118 1733 c6 -2 18 -2 25 0 6 3 1 5 -13 5 -14 0 -19 -2 -12 -5z"/>
<path d="M1880 1625 c0 -8 121 -66 129 -63 4 2 -23 17 -61 35 -37 18 -68 30
-68 28z"/>
</g>
</svg>
